<svg xmlns="http://www.w3.org/2000/svg" width="467" height="394"><g data-name="Group 1740" transform="translate(-805 -193)"><g data-name="Group 1739"><circle data-name="Ellipse 8" cx="55.5" cy="55.5" r="55.5" transform="translate(805 193)" fill="#eaeaea"/><circle data-name="Ellipse 11" cx="55.5" cy="55.5" r="55.5" transform="translate(1161 406)" fill="#eaeaea"/><circle data-name="Ellipse 12" cx="55.5" cy="55.5" r="55.5" transform="translate(986 193)" fill="#eaeaea"/><circle data-name="Ellipse 15" cx="55.5" cy="55.5" r="55.5" transform="translate(1161 193)" fill="#eaeaea"/><circle data-name="Ellipse 13" cx="55.5" cy="55.5" r="55.5" transform="translate(985 343)" fill="#eaeaea"/><circle data-name="Ellipse 14" cx="55.5" cy="55.5" r="55.5" transform="translate(988 471)" fill="#eaeaea"/><circle data-name="Ellipse 9" cx="63" cy="63" r="63" transform="translate(807 461)" fill="#eaeaea"/><g data-name="Group 1552"><path data-name="Path 6774" d="M1050.476 537.43c-.586-.435-1.5-.791-1.89-1.455-3.209-5.406-6.431-10.813-9.347-16.378-.442-.842.272-3.134 1.131-3.676 4.931-3.109 9.99-6.045 15.2-8.659 1.088-.546 3.781-.005 4.363.908 3.128 4.905 5.706 10.156 8.717 15.141 1.453 2.406.755 3.754-1.367 4.968-4.307 2.464-8.585 4.976-12.907 7.411-1.145.642-2.401 1.078-3.9 1.74z" fill="#fff"/><path data-name="Path 6775" d="M1044.786 540.971c-2.838 1.082-4.432 1.139-5.889-1.526-4.187-7.665-9-15-13.01-22.747-2.569-4.957-5.572-7.821-11.527-6.908-3.119.478-6.373.084-9.566.084l-.159-2.4a50.575 50.575 0 016.091-.78c8.8-.094 8.8-.042 4.693-7.638-.483-.892-.9-1.82-1.387-2.711-.86-1.574-2.928-3.422-.088-4.592.879-.363 3.255 1.256 4.019 2.526 7 11.624 13.834 23.35 20.633 35.094 2.155 3.725 4.06 7.59 6.19 11.598z" fill="#fff"/><path data-name="Path 6776" d="M1045.783 565.502c-5.83.018-9.835-3.948-9.928-9.829a9.8 9.8 0 019.637-10.23c5.439-.138 10.538 4.82 10.451 10.161a10.189 10.189 0 01-10.16 9.898z" fill="#fff"/><path data-name="Path 6777" d="M1052.981 544.128l-.145-1.739 10.491-6.072c3.666-2.122 7.276-4.352 11.031-6.3 1.2-.623 2.783-.509 4.19-.732-.741 1.228-1.187 2.936-2.272 3.6q-9.123 5.615-18.546 10.732c-1.295.701-3.152.367-4.749.511z" fill="#fff"/><path data-name="Path 6778" d="M1050.476 537.43c1.5-.661 2.755-1.1 3.9-1.74 4.322-2.435 8.6-4.948 12.907-7.411 2.122-1.214 2.82-2.562 1.367-4.968-3.011-4.985-5.589-10.236-8.717-15.141-.582-.913-3.276-1.454-4.363-.908-5.206 2.614-10.265 5.55-15.2 8.659-.859.542-1.572 2.833-1.131 3.676 2.917 5.565 6.138 10.972 9.347 16.378.394.666 1.305 1.019 1.89 1.455z" fill="#efbe39"/><path data-name="Path 6779" d="M1044.786 540.971c-2.13-4.009-4.035-7.874-6.19-11.6-6.8-11.744-13.632-23.47-20.633-35.094-.765-1.27-3.14-2.888-4.019-2.526-2.84 1.17-.772 3.018.088 4.592.487.891.9 1.819 1.387 2.711 4.11 7.6 4.112 7.544-4.693 7.638a50.575 50.575 0 00-6.091.78l.159 2.4c3.193 0 6.446.394 9.566-.084 5.954-.912 8.958 1.951 11.527 6.908 4.014 7.749 8.822 15.082 13.01 22.747 1.457 2.667 3.051 2.611 5.889 1.528z" fill="#efbe39"/><path data-name="Path 6780" d="M1045.783 565.502a10.189 10.189 0 0010.161-9.9c.087-5.341-5.012-10.3-10.451-10.161a9.8 9.8 0 00-9.637 10.23c.092 5.884 4.097 9.849 9.927 9.831zm1.063-4.41l-2.154.019c-1.318-1.908-3.759-3.9-3.627-5.7.124-1.7 2.96-4.449 4.6-4.445 1.688 0 4.558 2.657 4.725 4.365.171 1.79-2.255 3.831-3.544 5.761z" fill="#efbe39"/><path data-name="Path 6781" d="M1052.981 544.128c1.6-.143 3.454.19 4.749-.511q9.421-5.1 18.546-10.732c1.086-.668 1.532-2.376 2.272-3.6-1.407.223-2.991.109-4.19.732-3.755 1.952-7.365 4.182-11.031 6.3l-10.491 6.072z" fill="#efbe39"/><path data-name="Path 6782" d="M1046.845 561.092c1.289-1.93 3.716-3.971 3.541-5.759-.167-1.708-3.037-4.361-4.725-4.365-1.636 0-4.472 2.745-4.6 4.445-.132 1.8 2.31 3.791 3.627 5.7zm-.958-1.293c-1.453-1.909-3.068-3.1-3.022-4.232s1.773-2.156 2.763-3.23c1.057 1.006 2.838 1.929 2.966 3.042s-1.396 2.418-2.707 4.42z" fill="#fff"/><path data-name="Path 6783" d="M1045.887 559.798c1.311-2 2.836-3.306 2.707-4.419s-1.91-2.036-2.966-3.042c-.989 1.073-2.717 2.117-2.763 3.23s1.569 2.323 3.022 4.231z"/></g><g data-name="Group 1553"><path data-name="Path 6784" d="M967.445 249.456l-18.891-12.013a7.619 7.619 0 00-.421 1.909c.422 2.927-.954 3.638-3.659 3.468-3.486-.218-6.993-.053-10.82-.053v3.111c.008 2.043.092 4.089.005 6.128-.074 1.742.762 2.291 2.345 2.259 2.228-.046 4.457-.018 6.686-.026 4.683-.016 4.682-.016 5.71 4.3" fill="#fff"/><path data-name="Path 6785" d="M948.988 259.043l18.456-9.587" fill="#fff"/><path data-name="Path 6786" d="M948.402 258.534c-1.028-4.313-1.027-4.313-5.71-4.3-2.229.008-4.458-.02-6.686.026-1.584.037-2.419-.517-2.346-2.255.087-2.038 0-4.085-.005-6.128v-3.11c3.826 0 7.334-.165 10.817.053 2.7.17 4.081-.542 3.659-3.468a7.619 7.619 0 01.423-1.909l18.891 12.013"/><path data-name="Path 6787" d="M967.444 249.456l-18.456 9.587"/><path data-name="Path 6788" d="M965.346 249.363l-16.257-10.259v4.579c-.437.19-.686.391-.936.392-3.443.02-6.9.195-10.324-.049-2.51-.179-3.555.361-3.4 3.115.363 6.575-1 5.695 5.848 5.728 2.916.015 5.832 0 8.91 0v4.848"/><path data-name="Path 6789" d="M949.183 257.719l16.163-8.356"/><path data-name="Path 6790" d="M949.183 257.72v-4.849c-3.078 0-5.994.012-8.91 0-6.843-.036-5.485.844-5.848-5.731-.152-2.754.893-3.294 3.4-3.115 3.426.244 6.882.069 10.324.049.25 0 .5-.2.936-.392v-4.578l16.261 10.259" fill="#fff"/><path data-name="Path 6791" d="M965.346 249.363l-16.163 8.356" fill="#fff"/></g><g data-name="Group 1565"><path data-name="Path 6784" d="M1147.445 249.456l-18.891-12.013a7.619 7.619 0 00-.421 1.909c.422 2.927-.954 3.638-3.659 3.468-3.486-.218-6.993-.053-10.82-.053v3.111c.008 2.043.092 4.089.005 6.128-.074 1.742.762 2.291 2.345 2.259 2.228-.046 4.457-.018 6.686-.026 4.683-.016 4.682-.016 5.71 4.3" fill="#fff"/><path data-name="Path 6785" d="M1128.988 259.043l18.456-9.587" fill="#fff"/><path data-name="Path 6786" d="M1128.402 258.534c-1.028-4.313-1.027-4.313-5.71-4.3-2.229.008-4.458-.02-6.686.026-1.584.037-2.419-.517-2.346-2.255.087-2.038 0-4.085-.005-6.128v-3.11c3.826 0 7.334-.165 10.817.053 2.7.17 4.081-.542 3.659-3.468a7.619 7.619 0 01.423-1.909l18.891 12.013"/><path data-name="Path 6787" d="M1147.444 249.456l-18.456 9.587"/><path data-name="Path 6788" d="M1145.346 249.363l-16.257-10.259v4.579c-.437.19-.686.391-.936.392-3.443.02-6.9.195-10.324-.049-2.51-.179-3.555.361-3.4 3.115.363 6.575-1 5.695 5.848 5.728 2.916.015 5.832 0 8.91 0v4.848"/><path data-name="Path 6789" d="M1129.183 257.719l16.163-8.356"/><path data-name="Path 6790" d="M1129.183 257.72v-4.849c-3.078 0-5.994.012-8.91 0-6.843-.036-5.485.844-5.848-5.731-.152-2.754.893-3.294 3.4-3.115 3.426.244 6.882.069 10.324.049.25 0 .5-.2.936-.392v-4.578l16.261 10.259" fill="#fff"/><path data-name="Path 6791" d="M1145.346 249.363l-16.163 8.356" fill="#fff"/></g><g data-name="Group 1571"><path data-name="Path 6784" d="M940.654 528.456l18.893-12.013a7.618 7.618 0 01.421 1.909c-.422 2.927.954 3.638 3.659 3.468 3.484-.218 6.991-.053 10.817-.053v3.11c-.008 2.043-.092 4.089-.005 6.128.074 1.742-.762 2.291-2.345 2.259-2.228-.046-4.457-.018-6.686-.026-4.683-.016-4.682-.016-5.71 4.3" fill="#fff"/><path data-name="Path 6785" d="M959.11 538.043l-18.456-9.587" fill="#fff"/><path data-name="Path 6786" d="M959.697 537.534c1.028-4.313 1.027-4.313 5.71-4.3 2.229.008 4.458-.02 6.686.026 1.583.033 2.419-.517 2.345-2.259-.087-2.038 0-4.085.005-6.128v-3.11c-3.826 0-7.334-.165-10.817.053-2.7.17-4.081-.542-3.659-3.468a7.618 7.618 0 00-.42-1.905l-18.893 12.013"/><path data-name="Path 6787" d="M940.654 528.456l18.456 9.587"/><path data-name="Path 6788" d="M942.752 528.363l16.257-10.259v4.579c.437.19.686.391.936.392 3.443.02 6.9.195 10.324-.049 2.51-.179 3.555.361 3.4 3.115-.363 6.575 1 5.695-5.848 5.728-2.916.015-5.832 0-8.91 0v4.848"/><path data-name="Path 6789" d="M958.915 536.719l-16.163-8.356"/><path data-name="Path 6790" d="M958.915 536.72v-4.849c3.078 0 5.994.012 8.91 0 6.843-.034 5.485.847 5.848-5.728.152-2.754-.893-3.294-3.4-3.115-3.426.244-6.882.069-10.324.049-.25 0-.5-.2-.936-.392v-4.581l-16.261 10.259" fill="#fff"/><path data-name="Path 6791" d="M942.752 528.363l16.163 8.356" fill="#fff"/></g><g data-name="Group 1569"><path data-name="Path 6784" d="M1115.339 412.788l13.015 18.215a7.619 7.619 0 001.105-1.612c.706-2.872 2.248-3.016 4.692-1.845 3.15 1.508 6.464 2.67 10.012 4.103l1.166-2.885c.758-1.897 1.446-3.826 2.29-5.683.722-1.588.152-2.41-1.327-2.973-2.083-.792-4.14-1.653-6.21-2.48-4.347-1.74-4.346-1.74-3.683-6.127" fill="#fff"/><path data-name="Path 6785" d="M1136.043 410.814l-20.703 1.975" fill="#fff"/><path data-name="Path 6786" d="M1136.396 411.505c-.663 4.384-.664 4.384 3.683 6.126 2.07.828 4.126 1.689 6.209 2.48 1.483.56 2.05 1.386 1.33 2.97-.844 1.857-1.53 3.788-2.29 5.684l-1.166 2.883c-3.547-1.433-6.861-2.594-10.009-4.101-2.44-1.169-3.987-1.026-4.692 1.845a7.619 7.619 0 01-1.107 1.611l-13.015-18.215"/><path data-name="Path 6787" d="M1115.34 412.789l20.703-1.975"/><path data-name="Path 6788" d="M1117.25 413.66l11.23 15.603 1.715-4.246c.477-.012.783-.105 1.015-.013 3.2 1.272 6.47 2.404 9.554 3.913 2.26 1.107 3.431.997 4.32-1.614 2.126-6.232 3.06-4.906-3.277-7.502-2.698-1.106-5.407-2.184-8.261-3.338l1.816-4.494"/><path data-name="Path 6789" d="M1135.366 411.968l-18.116 1.693"/><path data-name="Path 6790" d="M1135.367 411.967l-1.817 4.496c2.854 1.153 5.562 2.234 8.261 3.338 6.332 2.597 5.402 1.272 3.276 7.504-.891 2.61-2.062 2.72-4.32 1.615-3.085-1.51-6.355-2.642-9.554-3.913-.231-.094-.538-.002-1.014.013l-1.715 4.244-11.234-15.603" fill="#fff"/><path data-name="Path 6791" d="M1117.25 413.66l18.116-1.692" fill="#fff"/></g><g data-name="Group 1570"><path data-name="Path 6784" d="M1114.43 494.447l22.015 4.062a7.619 7.619 0 00-.325-1.928c-1.488-2.556-.478-3.73 2.094-4.586 3.313-1.104 6.503-2.57 10.052-4.004l-1.166-2.885c-.773-1.891-1.617-3.757-2.3-5.68-.584-1.643-1.565-1.838-3.02-1.216-2.049.878-4.126 1.687-6.19 2.529-4.336 1.77-4.335 1.769-6.905-1.848" fill="#fff"/><path data-name="Path 6785" d="M1127.951 478.644l-13.52 15.803" fill="#fff"/><path data-name="Path 6786" d="M1128.685 478.896c2.569 3.614 2.568 3.615 6.905 1.848 2.064-.842 4.141-1.651 6.19-2.528 1.454-.628 2.436-.427 3.02 1.212.682 1.922 1.53 3.787 2.3 5.68l1.165 2.883c-3.548 1.433-6.738 2.9-10.05 4.003-2.567.854-3.58 2.031-2.093 4.586a7.619 7.619 0 01.323 1.929l-22.016-4.062"/><path data-name="Path 6787" d="M1114.43 494.447l13.521-15.803"/><path data-name="Path 6788" d="M1116.41 493.747l18.917 3.422-1.716-4.246c.334-.34.49-.62.721-.714 3.185-1.308 6.325-2.765 9.591-3.822 2.394-.774 3.16-1.666 1.985-4.162-2.8-5.96-1.206-5.654-7.567-3.12-2.71 1.079-5.408 2.185-8.262 3.338l-1.816-4.495"/><path data-name="Path 6789" d="M1128.266 479.945l-11.856 13.802"/><path data-name="Path 6790" d="M1128.266 479.944l1.816 4.496c2.854-1.153 5.553-2.257 8.262-3.338 6.358-2.53 4.769-2.837 7.569 3.123 1.172 2.496.406 3.389-1.986 4.162-3.268 1.057-6.407 2.514-9.59 3.822-.232.093-.39.373-.722.714l1.715 4.245-18.92-3.421" fill="#fff"/><path data-name="Path 6791" d="M1116.41 493.747l11.856-13.802" fill="#fff"/></g><g data-name="Group 1566"><path data-name="Path 6784" d="M1216.614 368.157l11.692-19.095a7.62 7.62 0 00-1.916-.389c-2.92.472-3.654-.892-3.53-3.6.159-3.49-.066-6.993-.131-10.82l-3.111.052c-2.043.043-4.087.162-6.128.11-1.743-.045-2.278.8-2.22 2.383.085 2.227.095 4.457.14 6.686.096 4.682.096 4.681-4.202 5.783" fill="#fff"/><path data-name="Path 6785" d="M1206.714 349.863l9.9 18.293" fill="#fff"/><path data-name="Path 6786" d="M1207.213 349.269c4.295-1.102 4.295-1.1 4.203-5.784-.046-2.228-.056-4.458-.14-6.685-.064-1.583.476-2.428 2.215-2.384 2.04.052 4.085-.07 6.128-.11l3.11-.052c.065 3.826.29 7.33.13 10.817-.123 2.703.612 4.072 3.531 3.6a7.62 7.62 0 011.916.391l-11.692 19.095"/><path data-name="Path 6787" d="M1216.614 368.156l-9.9-18.293"/><path data-name="Path 6788" d="M1216.672 366.057l9.982-16.432-4.579.078c-.197-.434-.402-.68-.408-.93-.078-3.442-.312-6.896-.126-10.324.136-2.513-.421-3.549-3.173-3.347-6.569.475-5.712-.903-5.628 5.945.034 2.916.099 5.832.151 8.91l-4.848.083"/><path data-name="Path 6789" d="M1208.041 350.036l8.63 16.02"/><path data-name="Path 6790" d="M1208.04 350.036l4.849-.083c-.052-3.078-.114-5.994-.151-8.91-.08-6.843-.938-5.47 5.631-5.945 2.752-.199 3.31.837 3.173 3.347-.186 3.43.048 6.883.126 10.325.005.25.209.496.408.93l4.578-.079-9.982 16.436" fill="#fff"/><path data-name="Path 6791" d="M1216.672 366.057l-8.631-16.021" fill="#fff"/></g><g data-name="Group 1554"><path data-name="Path 6792" d="M1086.49 271.356c-.386-3.442-.677-6.9-1.107-10.331-.769-6.129-1.612-12.249-2.47-18.714h-15.005c.437 2.618 2.311 2.738 4.379 2.749 1.041.006 2.64-.6 2.72 1.339.087 2.1.02 4.209.02 6.622a39.832 39.832 0 00-4.979-1.04c-2-.158-2.666-1.114-2.518-2.988a17.239 17.239 0 00-.039-3.316c-.055-.476-.524-.9-.806-1.355a15.744 15.744 0 00-.6 5.017c-.041 3.108.4 3.627 3.49 4.141 3.242.538 6.364 1.133 6.422 5.511.018 1.379.937 2.1 2.576 2.1 4.188.006 4.185.1 4.186-4.087a9.851 9.851 0 01.119-1.1 47.116 47.116 0 01.954 9.09c.012.467-.5 1.35-.8 1.361-2.546.093-5.2 1.528-7.621-.382-4.078-3.215-8.616-1.872-13.073-1.366l.067.067v-12.3c-3.739.9-3.43 3.36-3.069 5.939.256 1.822.279 3.677.432 5.9l-59.7-1.635v-30.8q28.043.529 55.984 1.038c1.576.027 2.058.746 2.073 2.2.033 3.065.071 6.136.312 9.189.066.838.863 1.618 1.632 2.964l-.358-12.305c-.1-3.534-.1-3.583-3.6-3.639q-27.844-.446-55.69-.841c-.73-.011-1.462.1-2.138.154a3.943 3.943 0 00-.282.932c.181 10.3.389 20.6.553 30.9.027 1.717 1.056 1.806 2.374 1.844 4.632.135 4.631.164 5.456 4.56h10.345a13.208 13.208 0 00.682 3.445c.537 1.033 1.667 1.745 2.279 2.755a5.777 5.777 0 005.143 3.07 5.707 5.707 0 005.486-3.025c1.155-1.964 2.067-4.07 3.135-6.212h8.593c.817 1.235 1.327 2.741 1.909 2.769 4.2.2 8.424.11 12.657.11l.371-3.53c1.468.286 3.108.132 3.89.877a8.2 8.2 0 011.814 3.984 5.917 5.917 0 004.779 4.7c2.654.594 4.754-.531 6.326-2.8a2.762 2.762 0 011.958-.911c2.722-.084 5.454-.1 8.173.046 2.074.111 2.783-.753 2.565-2.706" fill="#fff"/><path data-name="Path 6793" d="M1086.49 271.356c.218 1.953-.491 2.818-2.565 2.706-2.718-.147-5.451-.13-8.173-.046a2.762 2.762 0 00-1.958.911c-1.572 2.266-3.672 3.391-6.326 2.8a5.917 5.917 0 01-4.779-4.7 8.2 8.2 0 00-1.814-3.984c-.782-.746-2.422-.591-3.89-.877l-.371 3.53c-4.234 0-8.453.095-12.657-.11-.582-.028-1.092-1.534-1.909-2.769h-8.593c-1.068 2.141-1.98 4.247-3.135 6.212a5.707 5.707 0 01-5.486 3.025 5.777 5.777 0 01-5.143-3.07c-.612-1.01-1.742-1.722-2.279-2.755a13.208 13.208 0 01-.682-3.445h-10.345c-.825-4.4-.824-4.425-5.456-4.56-1.318-.038-2.347-.127-2.374-1.844-.164-10.3-.373-20.6-.553-30.9a3.943 3.943 0 01.282-.932c.676-.051 1.408-.165 2.138-.154q27.845.4 55.69.841c3.5.056 3.5.1 3.6 3.639l.358 12.305c-.77-1.346-1.566-2.127-1.632-2.964-.242-3.053-.28-6.124-.312-9.189-.015-1.453-.5-2.172-2.073-2.2q-27.968-.484-55.984-1.038v30.8l59.7 1.635c-.153-2.227-.176-4.082-.432-5.9-.362-2.578-.67-5.034 3.069-5.939v12.3l-5.514 1.419c2.219 1.842 4.321 1.291 5.448-1.486 4.457-.506 8.994-1.849 13.073 1.366 2.423 1.91 5.075.474 7.621.382.3-.011.812-.894.8-1.361a47.116 47.116 0 00-.954-9.09 9.851 9.851 0 00-.119 1.1c0 4.188 0 4.092-4.186 4.087-1.638 0-2.557-.725-2.576-2.1-.058-4.378-3.18-4.973-6.422-5.511-3.094-.514-3.53-1.032-3.49-4.141a15.744 15.744 0 01.6-5.017c.282.45.751.879.806 1.355a17.239 17.239 0 01.039 3.316c-.148 1.874.521 2.83 2.518 2.988a39.832 39.832 0 014.979 1.04c0-2.413.067-4.521-.02-6.622-.08-1.939-1.68-1.333-2.72-1.339-2.068-.011-3.942-.131-4.379-2.749h15.005c.857 6.465 1.7 12.584 2.47 18.714.431 3.436.722 6.889 1.107 10.331"/><path data-name="Path 6794" d="M1076.324 245.394c.295 4.014.545 7.889.876 11.756.229 2.682 1.884 2.73 4.217 2.006-.513-3.945-1.09-7.8-1.486-11.673-.21-2.062-1.224-2.605-3.607-2.089z"/><path data-name="Path 6795" d="M1044.292 265.649l.21 4.418h10.532v-4.275c-.775-.054-1.432-.134-2.089-.137-2.786-.015-5.562-.006-8.653-.006z"/><path data-name="Path 6796" d="M1080.557 272.391v.036c.679 0 1.361-.043 2.035.009 1.473.115 2.439-.149 2.394-2.005-.044-1.789-.818-2.447-2.506-2.324a28.477 28.477 0 00-4.551.342 2.877 2.877 0 00-1.641 1.858c-.3 1.177.155 2.189 1.726 2.093.845-.052 1.696-.009 2.543-.009z"/><path data-name="Path 6797" d="M1007.827 267.075c8.558.8 10.006.572 12.571-2.143-3.712-.184-7.237-.3-10.752-.553-2.171-.154-2.485.82-1.819 2.696z"/><path data-name="Path 6798" d="M1042.869 265.492h-12.853c2.08 2.038 10.679 2.478 12.853 0z"/><path data-name="Path 6799" d="M1070.006 276.162c-3.861-1.538-5.105-2.956-4.6-5.088a3.347 3.347 0 013.468-2.765c2.3-.052 3.071 1.079 3.514 4.948.827-2.53.2-4.508-2.019-5.663-1.736-.9-3.357-.354-4.83 1.025a4.1 4.1 0 00-.86 5.114 4.294 4.294 0 005.327 2.429z"/><path data-name="Path 6800" d="M1028.849 273.839c-2.374 2.341-4.022 2.7-5.863 1.158-1.681-1.407-2.082-3.458-.584-4.851a5.139 5.139 0 013.5-1.3c1.072.085 2.063 1.193 3.272 1.968a4.483 4.483 0 00-4.448-3.282c-1.911-.036-4.391 2.3-4.05 4.119a8.137 8.137 0 002.58 4.54c1.515 1.224 4.033-.034 5.593-2.352z"/><path data-name="Path 6801" d="M1025.227 274.833c.888-1.111 2.014-1.942 1.894-2.509-.166-.786-1.293-1.927-1.965-1.9-.721.031-1.786 1.161-1.947 1.964-.11.549 1.07 1.357 2.018 2.445z"/><path data-name="Path 6802" d="M1069.012 269.171c-1 1.171-2.16 1.982-2.044 2.513.18.821 1.232 1.451 1.914 2.162.626-.652 1.652-1.246 1.758-1.973.095-.648-.824-1.448-1.628-2.702z"/><path data-name="Path 6803" d="M1076.324 245.394c2.383-.516 3.4.027 3.608 2.089.4 3.873.973 7.728 1.486 11.673-2.333.724-3.988.676-4.217-2.006-.332-3.867-.585-7.741-.877-11.756z" fill="#fff"/><path data-name="Path 6804" d="M1044.292 265.649c3.091 0 5.872-.009 8.652.006.657 0 1.314.084 2.089.137v4.275h-10.532a3968.66 3968.66 0 00-.209-4.418z" fill="#fff"/><path data-name="Path 6805" d="M1080.557 272.391c-.848 0-1.7-.042-2.543.009-1.571.1-2.025-.916-1.726-2.093a2.877 2.877 0 011.641-1.858 28.477 28.477 0 014.551-.342c1.688-.123 2.462.535 2.506 2.324.046 1.857-.921 2.12-2.394 2.005-.674-.053-1.356-.009-2.035-.009z" fill="#fff"/><path data-name="Path 6806" d="M1007.827 267.075c-.665-1.876-.352-2.851 1.818-2.7 3.516.249 7.04.369 10.752.553-2.565 2.72-4.012 2.951-12.57 2.147z" fill="#fff"/><path data-name="Path 6807" d="M1042.869 265.492c-2.174 2.478-10.773 2.038-12.853 0z" fill="#fff"/><path data-name="Path 6808" d="M1070.006 276.162a4.294 4.294 0 01-5.326-2.43 4.1 4.1 0 01.86-5.114c1.473-1.378 3.095-1.929 4.83-1.025 2.22 1.156 2.847 3.133 2.019 5.663-.443-3.869-1.216-5-3.514-4.948a3.347 3.347 0 00-3.468 2.765c-.506 2.131.738 3.549 4.599 5.089z" fill="#fff"/><path data-name="Path 6809" d="M1028.849 273.839c-1.56 2.318-4.078 3.576-5.593 2.352a8.137 8.137 0 01-2.58-4.54c-.34-1.818 2.139-4.155 4.05-4.119a4.483 4.483 0 014.448 3.282c-1.209-.775-2.2-1.883-3.272-1.968a5.139 5.139 0 00-3.5 1.3c-1.5 1.393-1.1 3.444.584 4.851 1.841 1.541 3.489 1.182 5.863-1.158z" fill="#fff"/><path data-name="Path 6810" d="M1025.227 274.833c-.948-1.088-2.128-1.9-2.018-2.444.161-.8 1.226-1.933 1.947-1.964.672-.029 1.8 1.112 1.965 1.9.12.566-1.006 1.402-1.894 2.508z" fill="#fff"/><path data-name="Path 6811" d="M1069.012 269.171c.8 1.252 1.723 2.051 1.628 2.7-.106.727-1.132 1.321-1.758 1.973-.682-.711-1.734-1.341-1.914-2.162-.116-.529 1.042-1.34 2.044-2.511z" fill="#fff"/><path data-name="Path 6812" d="M1062.336 264.618c-1.126 2.778-3.228 3.328-5.448 1.486l5.514-1.419z" fill="#fff"/></g><g data-name="Group 1567"><path data-name="Path 6792" d="M1173.038 478.356c.386-3.442.677-6.9 1.107-10.331.769-6.129 1.612-12.249 2.47-18.714h15.005c-.437 2.618-2.311 2.738-4.379 2.749-1.041.006-2.64-.6-2.72 1.339-.087 2.1-.02 4.209-.02 6.622a39.832 39.832 0 014.979-1.04c2-.158 2.666-1.114 2.518-2.988a17.239 17.239 0 01.039-3.316c.055-.476.524-.9.806-1.355a15.744 15.744 0 01.6 5.017c.041 3.108-.4 3.627-3.49 4.141-3.242.538-6.364 1.133-6.422 5.511-.018 1.379-.937 2.1-2.576 2.1-4.188.006-4.185.1-4.186-4.087a9.851 9.851 0 00-.119-1.1 47.116 47.116 0 00-.954 9.09c-.012.467.5 1.35.8 1.361 2.546.093 5.2 1.528 7.621-.382 4.078-3.215 8.616-1.872 13.073-1.366l-.067.067v-12.3c3.739.9 3.43 3.36 3.069 5.939-.256 1.822-.279 3.677-.432 5.9l59.7-1.635v-30.8q-28.043.529-55.984 1.038c-1.576.027-2.058.746-2.073 2.2-.033 3.065-.071 6.136-.312 9.189-.066.838-.863 1.618-1.632 2.964l.358-12.305c.1-3.534.1-3.583 3.6-3.639q27.844-.446 55.69-.841c.73-.011 1.462.1 2.138.154a3.943 3.943 0 01.282.932c-.181 10.3-.389 20.6-.553 30.9-.027 1.717-1.056 1.806-2.374 1.844-4.632.135-4.631.164-5.456 4.56h-10.345a13.208 13.208 0 01-.682 3.445c-.537 1.033-1.667 1.745-2.279 2.755a5.777 5.777 0 01-5.143 3.07 5.707 5.707 0 01-5.486-3.025c-1.155-1.964-2.067-4.07-3.135-6.212h-8.593c-.817 1.235-1.327 2.741-1.909 2.769-4.2.2-8.424.11-12.657.11l-.371-3.53c-1.468.286-3.108.132-3.89.877a8.2 8.2 0 00-1.814 3.984 5.917 5.917 0 01-4.779 4.7c-2.654.594-4.754-.531-6.326-2.8a2.762 2.762 0 00-1.958-.911c-2.722-.084-5.454-.1-8.173.046-2.074.111-2.783-.753-2.565-2.706" fill="#fff"/><path data-name="Path 6793" d="M1173.038 478.356c-.218 1.953.491 2.818 2.565 2.706 2.718-.147 5.451-.13 8.173-.046a2.762 2.762 0 011.958.911c1.572 2.266 3.672 3.391 6.326 2.8a5.917 5.917 0 004.779-4.7 8.2 8.2 0 011.814-3.984c.782-.746 2.422-.591 3.89-.877l.371 3.53c4.234 0 8.453.095 12.657-.11.582-.028 1.092-1.534 1.909-2.769h8.593c1.068 2.141 1.98 4.247 3.135 6.212a5.707 5.707 0 005.486 3.025 5.777 5.777 0 005.143-3.07c.612-1.01 1.742-1.722 2.279-2.755a13.208 13.208 0 00.682-3.445h10.347c.825-4.4.824-4.425 5.456-4.56 1.318-.038 2.347-.127 2.374-1.844.164-10.3.373-20.6.553-30.9a3.943 3.943 0 00-.282-.932c-.676-.051-1.408-.165-2.138-.154q-27.845.4-55.69.841c-3.5.056-3.5.1-3.6 3.639l-.358 12.305c.77-1.346 1.566-2.127 1.632-2.964.242-3.053.28-6.124.312-9.189.015-1.453.5-2.172 2.073-2.2q27.968-.484 55.984-1.038v30.8l-59.7 1.635c.153-2.227.176-4.082.432-5.9.362-2.578.67-5.034-3.069-5.939v12.3l5.514 1.419c-2.219 1.842-4.321 1.291-5.448-1.486-4.457-.506-8.994-1.849-13.073 1.366-2.423 1.91-5.075.474-7.621.382-.3-.011-.812-.894-.8-1.361a47.116 47.116 0 01.954-9.09 9.851 9.851 0 01.119 1.1c0 4.188 0 4.092 4.186 4.087 1.638 0 2.557-.725 2.576-2.1.058-4.378 3.18-4.973 6.422-5.511 3.094-.514 3.53-1.032 3.49-4.141a15.744 15.744 0 00-.6-5.017c-.282.45-.751.879-.806 1.355a17.239 17.239 0 00-.039 3.316c.148 1.874-.521 2.83-2.518 2.988a39.832 39.832 0 00-4.979 1.04c0-2.413-.067-4.521.02-6.622.08-1.939 1.68-1.333 2.72-1.339 2.068-.011 3.942-.131 4.379-2.749h-15.005c-.857 6.465-1.7 12.584-2.47 18.714-.431 3.436-.722 6.889-1.107 10.331"/><path data-name="Path 6794" d="M1183.202 452.394c-.295 4.014-.545 7.889-.876 11.756-.229 2.682-1.884 2.73-4.217 2.006.513-3.945 1.09-7.8 1.486-11.673.207-2.062 1.226-2.605 3.607-2.089z"/><path data-name="Path 6795" d="M1215.236 472.649l-.21 4.418h-10.532v-4.275c.775-.054 1.432-.134 2.089-.137 2.778-.015 5.562-.006 8.653-.006z"/><path data-name="Path 6796" d="M1178.97 479.391v.036c-.679 0-1.361-.043-2.035.009-1.473.115-2.439-.149-2.394-2.005.044-1.789.818-2.447 2.506-2.324a28.477 28.477 0 014.551.342 2.877 2.877 0 011.641 1.858c.3 1.177-.155 2.189-1.726 2.093-.843-.052-1.695-.009-2.543-.009z"/><path data-name="Path 6797" d="M1251.702 474.075c-8.558.8-10.006.572-12.571-2.143 3.712-.184 7.237-.3 10.752-.553 2.174-.154 2.484.82 1.819 2.696z"/><path data-name="Path 6798" d="M1216.659 472.492h12.853c-2.08 2.038-10.679 2.478-12.853 0z"/><path data-name="Path 6799" d="M1189.522 483.162c3.861-1.538 5.105-2.956 4.6-5.088a3.347 3.347 0 00-3.468-2.765c-2.3-.052-3.071 1.079-3.514 4.948-.827-2.53-.2-4.508 2.019-5.663 1.736-.9 3.357-.354 4.83 1.025a4.1 4.1 0 01.86 5.114 4.294 4.294 0 01-5.327 2.429z"/><path data-name="Path 6800" d="M1230.679 480.839c2.374 2.341 4.022 2.7 5.863 1.158 1.681-1.407 2.082-3.458.584-4.851a5.139 5.139 0 00-3.5-1.3c-1.072.085-2.063 1.193-3.272 1.968a4.483 4.483 0 014.448-3.282c1.911-.036 4.391 2.3 4.05 4.119a8.137 8.137 0 01-2.58 4.54c-1.515 1.224-4.033-.034-5.593-2.352z"/><path data-name="Path 6801" d="M1234.301 481.833c-.888-1.111-2.014-1.942-1.894-2.509.166-.786 1.293-1.927 1.965-1.9.721.031 1.786 1.161 1.947 1.964.112.549-1.07 1.357-2.018 2.445z"/><path data-name="Path 6802" d="M1190.515 476.171c1 1.171 2.16 1.982 2.044 2.513-.18.821-1.232 1.451-1.914 2.162-.626-.652-1.652-1.246-1.758-1.973-.094-.648.824-1.448 1.628-2.702z"/><path data-name="Path 6803" d="M1183.202 452.394c-2.383-.516-3.4.027-3.608 2.089-.4 3.873-.973 7.728-1.486 11.673 2.333.724 3.988.676 4.217-2.006.334-3.867.584-7.741.877-11.756z" fill="#fff"/><path data-name="Path 6804" d="M1215.236 472.649c-3.091 0-5.872-.009-8.652.006-.657 0-1.314.084-2.089.137v4.275h10.532c.062-1.332.128-2.719.209-4.418z" fill="#fff"/><path data-name="Path 6805" d="M1178.97 479.391c.848 0 1.7-.042 2.543.009 1.571.1 2.025-.916 1.726-2.093a2.877 2.877 0 00-1.641-1.858 28.477 28.477 0 00-4.551-.342c-1.688-.123-2.462.535-2.506 2.324-.046 1.857.921 2.12 2.394 2.005.674-.053 1.356-.009 2.035-.009z" fill="#fff"/><path data-name="Path 6806" d="M1251.702 474.075c.665-1.876.352-2.851-1.818-2.7-3.516.249-7.04.369-10.752.553 2.564 2.72 4.012 2.951 12.57 2.147z" fill="#fff"/><path data-name="Path 6807" d="M1216.659 472.492c2.174 2.478 10.773 2.038 12.853 0z" fill="#fff"/><path data-name="Path 6808" d="M1189.522 483.162a4.294 4.294 0 005.326-2.43 4.1 4.1 0 00-.86-5.114c-1.473-1.378-3.095-1.929-4.83-1.025-2.22 1.156-2.847 3.133-2.019 5.663.443-3.869 1.216-5 3.514-4.948a3.347 3.347 0 013.468 2.765c.506 2.131-.738 3.549-4.599 5.089z" fill="#fff"/><path data-name="Path 6809" d="M1230.679 480.839c1.56 2.318 4.078 3.576 5.593 2.352a8.137 8.137 0 002.58-4.54c.34-1.818-2.139-4.155-4.05-4.119a4.483 4.483 0 00-4.448 3.282c1.209-.775 2.2-1.883 3.272-1.968a5.139 5.139 0 013.5 1.3c1.5 1.393 1.1 3.444-.584 4.851-1.841 1.541-3.489 1.182-5.863-1.158z" fill="#fff"/><path data-name="Path 6810" d="M1234.301 481.833c.948-1.088 2.128-1.9 2.018-2.444-.161-.8-1.226-1.933-1.947-1.964-.672-.029-1.8 1.112-1.965 1.9-.12.566 1.006 1.402 1.894 2.508z" fill="#fff"/><path data-name="Path 6811" d="M1190.515 476.171c-.8 1.252-1.723 2.051-1.628 2.7.106.727 1.132 1.321 1.758 1.973.682-.711 1.734-1.341 1.914-2.162.116-.529-1.042-1.34-2.044-2.511z" fill="#fff"/><path data-name="Path 6812" d="M1197.192 471.618c1.126 2.778 3.228 3.328 5.448 1.486l-5.514-1.419z" fill="#fff"/></g><g data-name="Group 1559" fill="#39a81e"><path data-name="Path 6827" d="M1007.016 411.662c9.3 3.261 18.488 1.294 27.544 1.57 2.969.091 4.155.672 3.962 3.824-.234 3.8-.058 7.64.065 11.458.06 1.883-.512 2.757-2.54 2.739-5.027-.045-10.076.343-15.071-.04a7.406 7.406 0 01-4.929-3.167c-3.195-5.168-5.91-10.627-9.031-16.384z"/><path data-name="Path 6828" d="M1031.875 365.356c6.233 0 12.756-.059 19.276.033a5.176 5.176 0 014.994 3.15 59.019 59.019 0 003.8 6.052l4.634-2.407c-1.606 3.72-2.8 6.723-4.182 9.633-2.6 5.475-2.654 5.489-8.784 5.037-3-.221-5.986-.6-8.976-.929-.179-.02-.342-.191-.693-.4.68-.52 1.508-.871 1.857-1.492.425-.756.888-1.967.569-2.584a56.686 56.686 0 00-5.3-9.01c-2.068-2.65-4.807-4.78-7.195-7.083z"/><path data-name="Path 6829" d="M1074.163 410.975c-3.087 5.749-6.086 11.548-9.309 17.22a6.034 6.034 0 01-5.845 2.962c-2.187-.089-4.38-.018-6.825-.018-.115 1.72-.2 3.058-.293 4.4l-.583.293c-1.236-1.879-2.433-3.787-3.717-5.634-4.685-6.74-4.714-6.743-.6-13.534 1.265-2.087 2.655-4.1 4.449-6.854l.694 4.766c7.225-1.074 15.123 2.2 21.472-4.317z"/><path data-name="Path 6830" d="M1026.392 366.347c6.16.62 9.971 3.014 12.266 7.573a2.464 2.464 0 01-.169 2.065c-3.079 4.754-6.286 9.426-9.369 14.177-.823 1.269-1.479 1.513-2.865.705-3.689-2.147-7.542-4.017-11.186-6.234-.554-.337-.805-2.191-.408-2.9a130.005 130.005 0 017.449-12.235c1.129-1.594 3.29-2.453 4.282-3.151z"/><path data-name="Path 6831" d="M1052.335 395.492l14.643-8.866c1.74 3.175 3.4 6.182 5.039 9.2a47.082 47.082 0 002.554 4.741c1.714 2.433 1.391 4.575-.241 6.88a13.825 13.825 0 01-8.14 5.634 3.736 3.736 0 01-3.156-1.274c-3.614-5.247-7.014-10.64-10.699-16.315z"/><path data-name="Path 6832" d="M1005.189 392.053c4.643 0 9.286-.049 13.926.057a2.655 2.655 0 011.856 1.247c2.053 3.749 3.978 7.568 6.429 12.3-2.865-1.34-4.84-2.543-6.563.272-1.16 1.894-2.737 3.436-1.044 6.04-5.126.641-9.9.444-13.063-3.637-3.34-4.31-1.28-8.69 1.431-12.952l-3.087-2.438"/></g><g data-name="Group 1561"><path data-name="Path 6833" d="M855.02 278.558c-.428-.779-1.154-1.531-1.226-2.342a52.446 52.446 0 01-.052-6.112c.09-3.153.4-6.193-3.149-8.143-1.053-.579-1.656-2.728-1.729-4.194-.222-4.407-.2-8.836-.046-13.249.142-4.135 2.5-6.324 6.691-6.426 3.283-.08 6.572-.088 9.855 0a6.353 6.353 0 016.587 6.627c.058 2.151.01 4.3.01 6.457 0 2.039.353 4.161-.1 6.094s-1.292 4.207-2.73 5.416a5.384 5.384 0 00-2.29 4.84 90.943 90.943 0 01-.041 8.831"/><path data-name="Path 6834" d="M865.41 278.55c-.473-.748-1.32-1.479-1.354-2.247-.148-3.392-.053-6.794-.066-10.193-.01-2.45-.534-4.995 3.172-5.581.82-.13 1.79-2.292 1.869-3.569.245-3.949.167-7.926.067-11.888-.061-2.426-1.264-4.172-3.863-4.312-3.049-.164-6.116-.224-9.165-.094-2.894.124-4.575 1.616-4.518 4.754.069 3.85-.237 7.728.146 11.541.142 1.417 1.762 2.69 2.724 4.017.7.966 1.982 1.881 2.039 2.875.234 4.064.184 8.153.029 12.226-.032.844-.958 1.655-1.472 2.48" fill="#fff"/><path data-name="Path 6835" d="M879.962 277.146a200.28 200.28 0 01.021-11.522 1.9 1.9 0 011.226-1.319c3.026-.61 3.55-2.691 3.469-5.313-.066-2.145.107-4.3.061-6.44-.1-4.413-.994-5.239-5.477-5.421-1.523-.062-3.764.62-2.966-2.741 1.7 0 3.156-.042 4.612.008 3.837.131 6.365 2.355 6.632 6.244a64.128 64.128 0 01-.037 10.155 6.516 6.516 0 01-2.09 4.368c-2.5 1.748-3 3.894-2.785 6.616a28.428 28.428 0 01-.052 5.078"/><path data-name="Path 6836" d="M839.401 278.665a9.3 9.3 0 01-1.38-2.684 28.026 28.026 0 01-.036-4.732c.058-2.3.086-4.565-2.5-5.717-.288-.128-.492-.457-.72-.707-2.321-2.538-2.346-15.575-.1-18.144 2.648-3.025 6.111-2.22 9.412-2.232l.791 1.1c-.832.52-1.706 1.544-2.489 1.478-5.608-.472-7.078 2.581-6.748 7.215.135 1.911-.324 3.945.186 5.723.44 1.53 1.6 3.421 2.932 3.995 1.974.847 2.5 1.876 2.427 3.787-.1 2.706.131 5.432-.1 8.121-.084.974-1.089 1.869-1.674 2.8"/><path data-name="Path 6837" d="M878.895 225.688a7.557 7.557 0 11-.244 15.112 7.335 7.335 0 01-7.531-7.695c.077-4.477 3.173-7.431 7.775-7.417zm4.608 7.5a5.348 5.348 0 00-4.662-4.976c-2.365-.073-4.864 2.5-4.865 5.008a4.864 4.864 0 004.9 4.885 5.08 5.08 0 004.627-4.917z"/><path data-name="Path 6838" d="M867.964 226.633a7.631 7.631 0 11-7.85-7.555 7.713 7.713 0 017.85 7.555zm-2.835.121a5.034 5.034 0 00-4.735-4.837 4.819 4.819 0 00-.032 9.637 5.019 5.019 0 004.767-4.8z"/><path data-name="Path 6839" d="M849.611 233.188a7.582 7.582 0 01-15.164.061 7.27 7.27 0 017.39-7.562 7.353 7.353 0 017.774 7.501zm-2.764-.031c-.047-2.527-2.668-5.09-5.063-4.953a5.279 5.279 0 00-4.488 5.054 4.766 4.766 0 004.934 4.855 5.088 5.088 0 004.621-4.956z"/><path data-name="Path 6840" d="M883.503 233.187a5.08 5.08 0 01-4.624 4.917 4.863 4.863 0 01-4.9-4.885c0-2.508 2.5-5.081 4.865-5.008a5.348 5.348 0 014.659 4.976z" fill="#fff"/><path data-name="Path 6841" d="M865.128 226.755a5.019 5.019 0 01-4.767 4.8 4.819 4.819 0 01.032-9.637 5.034 5.034 0 014.735 4.837z" fill="#fff"/><path data-name="Path 6842" d="M846.847 233.157a5.088 5.088 0 01-4.616 4.955 4.766 4.766 0 01-4.934-4.855 5.279 5.279 0 014.488-5.054c2.394-.136 5.015 2.427 5.062 4.954z" fill="#fff"/></g><g data-name="Group 1564"><path data-name="Path 6833" d="M866.02 557.558c-.428-.779-1.154-1.531-1.226-2.342a52.446 52.446 0 01-.052-6.112c.09-3.153.4-6.193-3.149-8.143-1.053-.579-1.656-2.728-1.729-4.194-.222-4.407-.2-8.836-.046-13.249.142-4.135 2.5-6.324 6.691-6.426 3.283-.08 6.572-.088 9.855 0a6.353 6.353 0 016.587 6.627c.058 2.151.01 4.3.01 6.457 0 2.039.353 4.161-.1 6.094s-1.292 4.207-2.73 5.416a5.384 5.384 0 00-2.29 4.84 90.943 90.943 0 01-.041 8.831"/><path data-name="Path 6834" d="M876.41 557.55c-.473-.748-1.32-1.479-1.354-2.247-.148-3.392-.053-6.794-.066-10.193-.01-2.45-.534-4.995 3.172-5.581.82-.13 1.79-2.292 1.869-3.569.245-3.949.167-7.926.067-11.888-.061-2.426-1.264-4.172-3.863-4.312-3.049-.164-6.116-.224-9.165-.094-2.894.124-4.575 1.616-4.518 4.754.069 3.85-.237 7.728.146 11.541.142 1.417 1.762 2.69 2.724 4.017.7.966 1.982 1.881 2.039 2.875.234 4.064.184 8.153.029 12.226-.032.844-.958 1.655-1.472 2.48" fill="#fff"/><path data-name="Path 6835" d="M890.962 556.146a200.28 200.28 0 01.021-11.522 1.9 1.9 0 011.226-1.319c3.026-.61 3.55-2.691 3.469-5.313-.066-2.145.107-4.3.061-6.44-.1-4.413-.994-5.239-5.477-5.421-1.523-.062-3.764.62-2.966-2.741 1.7 0 3.156-.042 4.612.008 3.837.131 6.365 2.355 6.632 6.244a64.128 64.128 0 01-.037 10.155 6.516 6.516 0 01-2.09 4.368c-2.5 1.748-3 3.894-2.785 6.616a28.428 28.428 0 01-.052 5.078"/><path data-name="Path 6836" d="M850.401 557.665a9.3 9.3 0 01-1.38-2.684 28.026 28.026 0 01-.036-4.732c.058-2.3.086-4.565-2.5-5.717-.288-.128-.492-.457-.72-.707-2.321-2.538-2.346-15.575-.1-18.144 2.648-3.025 6.111-2.22 9.412-2.232l.791 1.1c-.832.52-1.706 1.544-2.489 1.478-5.608-.472-7.078 2.581-6.748 7.215.135 1.911-.324 3.945.186 5.723.44 1.53 1.6 3.421 2.932 3.995 1.974.847 2.5 1.876 2.427 3.787-.1 2.706.131 5.432-.1 8.121-.084.974-1.089 1.869-1.674 2.8"/><path data-name="Path 6837" d="M889.895 504.688a7.557 7.557 0 11-.244 15.112 7.335 7.335 0 01-7.531-7.695c.077-4.477 3.173-7.431 7.775-7.417zm4.608 7.5a5.348 5.348 0 00-4.662-4.976c-2.365-.073-4.864 2.5-4.865 5.008a4.864 4.864 0 004.9 4.885 5.08 5.08 0 004.627-4.917z"/><path data-name="Path 6838" d="M878.964 505.633a7.631 7.631 0 11-7.85-7.555 7.713 7.713 0 017.85 7.555zm-2.835.121a5.034 5.034 0 00-4.735-4.837 4.819 4.819 0 00-.032 9.637 5.019 5.019 0 004.767-4.8z"/><path data-name="Path 6839" d="M860.611 512.188a7.582 7.582 0 01-15.164.061 7.27 7.27 0 017.39-7.562 7.353 7.353 0 017.774 7.501zm-2.764-.031c-.047-2.527-2.668-5.09-5.063-4.953a5.279 5.279 0 00-4.488 5.054 4.766 4.766 0 004.934 4.855 5.088 5.088 0 004.621-4.956z"/><path data-name="Path 6840" d="M894.503 512.187a5.08 5.08 0 01-4.624 4.917 4.863 4.863 0 01-4.9-4.885c0-2.508 2.5-5.081 4.865-5.008a5.348 5.348 0 014.659 4.976z" fill="#fff"/><path data-name="Path 6841" d="M876.128 505.755a5.019 5.019 0 01-4.767 4.8 4.819 4.819 0 01.032-9.637 5.034 5.034 0 014.735 4.837z" fill="#fff"/><path data-name="Path 6842" d="M857.847 512.157a5.088 5.088 0 01-4.616 4.955 4.766 4.766 0 01-4.934-4.855 5.279 5.279 0 014.488-5.054c2.394-.136 5.015 2.427 5.062 4.954z" fill="#fff"/></g></g><path data-name="Rectangle 158" fill="#fff" d="M1004 236h47v20h-47z"/><path data-name="Rectangle 159" fill="#fff" d="M1208 443h47v20h-47z"/><rect data-name="Rectangle 160" width="49" height="9" rx="3" transform="translate(1192 240)" fill="#fff"/><path data-name="Path 8423" d="M1209.438 258.249c-9.71-7.2-17.438 0-17.438 0V273.5h17.438z" fill="#fff"/><g data-name="001-factory"><path data-name="Path 8413" d="M1236.98 265.25a4.872 4.872 0 01-3.271 1.283c-.192.018-.387.036-.589.059a.947.947 0 10.216 1.882 20.4 20.4 0 01.549-.055 6.7 6.7 0 004.315-1.72 8.106 8.106 0 002.6-8.245.947.947 0 00-.841-.7 10.225 10.225 0 00-7.283 2.075.947.947 0 101.175 1.485 8.186 8.186 0 015.258-1.7 6.206 6.206 0 01-2.129 5.636z"/><path data-name="Path 8414" d="M1191.126 232.243a.947.947 0 00.947-.947v-11.188a1.274 1.274 0 012.015-1.036l10.76 7.709a.947.947 0 001.5-.77v-5.9a1.274 1.274 0 012.015-1.036l10.76 7.709a.947.947 0 001.5-.77v-5.9a1.273 1.273 0 012.014-1.036l9.929 7.113a1.048 1.048 0 01.437.85v4.195a.947.947 0 001.894 0v-4.201a2.946 2.946 0 00-1.227-2.389l-9.929-7.113a3.167 3.167 0 00-5.011 2.575v4.06l-9.262-6.636a3.168 3.168 0 00-5.012 2.576v4.06l-9.262-6.636a3.168 3.168 0 00-5.012 2.576v11.186a.947.947 0 00.947.947z"/><path data-name="Path 8415" d="M1247.814 246.88a.947.947 0 00.947-.947v-6.105a7.027 7.027 0 00-7.019-7.019h-49.723a7.027 7.027 0 00-7.019 7.019v34.535a.947.947 0 00.947.947h61.867a.947.947 0 00.947-.947v-25.274a.947.947 0 10-1.894 0v24.325h-15.477v-4.931a10.622 10.622 0 00.487-6.538 9.881 9.881 0 00-3.172-5.092c-.292-.246-1.155-.94-1.554-1.193a.947.947 0 00-1.284.257l-.229.328c-1.446-.5-4.771-1.484-7.224-.87a.947.947 0 00-.685.675 9.894 9.894 0 003.17 10.064 8.084 8.084 0 005.263 2.1 10.869 10.869 0 013.334.719v4.486h-18.751v-13.2a6.166 6.166 0 00-6.159-6.159h-7.7a6.166 6.166 0 00-6.16 6.159v6.929a.947.947 0 101.894 0v-6.929a4.27 4.27 0 014.266-4.266h2.9v17.465h-7.164v-3.114a.947.947 0 00-1.894 0v3.114h-3.834v-33.59a5.131 5.131 0 015.125-5.125h49.723a5.131 5.131 0 015.125 5.125v6.105a.947.947 0 00.947.947zm-25.694 17.783a8 8 0 01-2.69-7.555c2.548-.311 6.147 1.128 6.209 1.153a.947.947 0 001.133-.335l.091-.131c.233.183.465.371.622.5a8.09 8.09 0 012.736 7.249 10.673 10.673 0 00-5.034-5.079.947.947 0 10-.833 1.7 8.843 8.843 0 014.309 4.5 15.252 15.252 0 00-2.324-.35 6.279 6.279 0 01-4.219-1.652zm-20.436-8.717h2.9a4.27 4.27 0 014.266 4.266v13.2h-7.167V255.95z"/><path data-name="Path 8416" d="M1243.032 246.229v-3.516a3.88 3.88 0 00-3.874-3.876h-44.554a3.88 3.88 0 00-3.876 3.876v3.516a3.88 3.88 0 003.876 3.876h44.554a3.88 3.88 0 003.874-3.876zm-30.246-5.5h8.188v7.48h-8.188zm-1.894 7.48h-8.188v-7.48h8.188zm11.976-7.48h8.19v7.48h-8.19zm-30.246 5.5v-3.516a1.984 1.984 0 011.982-1.982h6.206v7.48h-6.206a1.984 1.984 0 01-1.982-1.982zm48.516 0a1.984 1.984 0 01-1.982 1.982h-6.206v-7.48h6.208a1.984 1.984 0 011.982 1.982z"/><path data-name="Path 8417" d="M1199.911 226.679h-3.788a.947.947 0 100 1.894h3.788a.947.947 0 100-1.894z"/><path data-name="Path 8418" d="M1214.431 226.679h-3.788a.947.947 0 100 1.894h3.788a.947.947 0 100-1.894z"/><path data-name="Path 8419" d="M1228.951 226.679h-3.788a.947.947 0 000 1.894h3.788a.947.947 0 000-1.894z"/><path data-name="Path 8420" d="M1199.911 229.744h-3.788a.947.947 0 100 1.894h3.788a.947.947 0 000-1.894z"/><path data-name="Path 8421" d="M1214.431 229.744h-3.788a.947.947 0 100 1.894h3.788a.947.947 0 100-1.894z"/><path data-name="Path 8422" d="M1228.951 229.744h-3.788a.947.947 0 000 1.894h3.788a.947.947 0 000-1.894z"/></g></g></svg>